<svg width="32" height="32" viewBox="0 0 32 32" fill="none" xmlns="http://www.w3.org/2000/svg">
<path d="M4 28C4 25.0545 8.17867 22.6667 13.3333 22.6667C18.488 22.6667 22.6667 25.0545 22.6667 28" stroke="white" stroke-width="2" stroke-linecap="round" stroke-linejoin="round"/>
<path d="M24.3334 22.6667C24.3334 23.2189 24.7811 23.6667 25.3334 23.6667C25.8857 23.6667 26.3334 23.2189 26.3334 22.6667L24.3334 22.6667ZM26.3334 14.6667C26.3334 14.1144 25.8857 13.6667 25.3334 13.6667C24.7811 13.6667 24.3334 14.1144 24.3334 14.6667L26.3334 14.6667ZM26.3334 22.6667L26.3334 14.6667L24.3334 14.6667L24.3334 22.6667L26.3334 22.6667Z" fill="white"/>
<path d="M21.3334 17.6667C20.7811 17.6667 20.3334 18.1144 20.3334 18.6667C20.3334 19.2189 20.7811 19.6667 21.3334 19.6667L21.3334 17.6667ZM29.3334 19.6667C29.8857 19.6667 30.3334 19.2189 30.3334 18.6667C30.3334 18.1144 29.8857 17.6667 29.3334 17.6667L29.3334 19.6667ZM21.3334 19.6667L29.3334 19.6667L29.3334 17.6667L21.3334 17.6667L21.3334 19.6667Z" fill="white"/>
<path d="M13.3333 17.3333C17.0152 17.3333 20 14.3486 20 10.6667C20 6.98477 17.0152 4 13.3333 4C9.65139 4 6.66663 6.98477 6.66663 10.6667C6.66663 14.3486 9.65139 17.3333 13.3333 17.3333Z" stroke="white" stroke-width="2" stroke-linecap="round" stroke-linejoin="round"/>
</svg>
