<svg width="27" height="27" viewBox="0 0 27 27" fill="none" xmlns="http://www.w3.org/2000/svg">
<path d="M9.64286 7.875V5.4C9.64286 4.86294 9.84605 4.34787 10.2077 3.96811C10.5694 3.58835 11.0599 3.375 11.5714 3.375H15.4286C15.9401 3.375 16.4306 3.58835 16.7923 3.96811C17.154 4.34787 17.3571 4.86294 17.3571 5.4V7.875M21.375 7.875L20.25 21.6C20.25 22.1371 20.0468 22.6521 19.6851 23.0319C19.3235 23.4117 18.8329 23.625 18.3214 23.625H8.67857C8.16708 23.625 7.67654 23.4117 7.31487 23.0319C6.95319 22.6521 6.75 22.1371 6.75 21.6L5.625 7.875H21.375Z" stroke="#DD2572" stroke-width="2" stroke-linecap="round" stroke-linejoin="round"/>
<path d="M4.5 7.875H6.5H22.5" stroke="#DD2572" stroke-width="2" stroke-linecap="round" stroke-linejoin="round"/>
<path d="M11.25 12.375V18" stroke="#DD2572" stroke-width="2" stroke-linecap="round" stroke-linejoin="round"/>
<path d="M15.75 12.375V18" stroke="#DD2572" stroke-width="2" stroke-linecap="round" stroke-linejoin="round"/>
</svg>
